PathFileType	4	(X/Y/Z)	pose_F01_0-89.trc
DataRate	CameraRate	NumFrames	NumMarkers	Units	OrigDataRate	OrigDataStartFrame	OrigNumFrames
30	30	7	21	m	30	0	89
Frame#	Time	CHip			RHip			RKnee			RAnkle			RBigToe			RSmallToe			RHeel			LHip			LKnee			LAnkle			LBigToe			LSmallToe			LHeel			Neck			Nose			RShoulder			RElbow			RWrist			LShoulder			LElbow			LWrist			
		X1	Y1	Z1	X2	Y2	Z2	X3	Y3	Z3	X4	Y4	Z4	X5	Y5	Z5	X6	Y6	Z6	X7	Y7	Z7	X8	Y8	Z8	X9	Y9	Z9	X10	Y10	Z10	X11	Y11	Z11	X12	Y12	Z12	X13	Y13	Z13	X14	Y14	Z14	X15	Y15	Z15	X16	Y16	Z16	X17	Y17	Z17	X18	Y18	Z18	X19	Y19	Z19	X20	Y20	Z20	X21	Y21	Z21	
0	0.0	-0.2502276260105058	1.8385430926713051	-0.512850064861334	-0.26184529055805134	1.832972558608131	-0.446025785416667	-0.2569925248505248	1.717405077238628	-0.4571959792178864	-0.23617752880919282	1.6136640673274332	-0.4413703695802904							-0.22638552464021186	1.6123964979942877	-0.4246374230687787	-0.2329554963415437	1.8399212315384146	-0.5749390476533962	-0.23819973170218736	1.7022939932679333	-0.5559750890750428	-0.2185205390324726	1.6113646605605323	-0.5016269895724365	-0.21910110380702325	1.5683460253217354	-0.5587694937546674	-0.2080152618170154	1.587321202290445	-0.5768019074783618	-0.21264218055935696	1.6131391267722188	-0.5032219231879591	-0.24236114580038648	1.98492143190951	-0.517426836853291	-0.2532988779739728	2.0565508364131873	-0.5518739385206345	-0.2606838005320413	1.9807653558064746	-0.4226145132001576	-0.27341864466712806	1.8976649452044143	-0.386777731623691	-0.28204787118670566	1.824448000630659	-0.3821844113087276	-0.21693275236048867	1.9856973621871687	-0.6154126544895971	-0.21371558858584244	1.9154256034018793	-0.6350903595915435	-0.2070591172151186	1.83250600830753	-0.6406352921529196
1	0.03333333333333333	-0.2504779949617863	1.834626918222042	-0.5121596063444898	-0.2621681268142613	1.8301541593762907	-0.44556693465479	-0.2569925248505248	1.717405077238628	-0.4571959792178864	-0.23617752880919282	1.6136640673274332	-0.4413703695802904							-0.22638552464021186	1.6123964979942877	-0.4246374230687787	-0.23322984964340046	1.8355516595512655	-0.57423333542088	-0.23819973170218736	1.7022939932679333	-0.5559750890750428	-0.2185205390324726	1.6113646605605323	-0.5016269895724365	-0.21910110380702325	1.5683460253217354	-0.5587694937546674	-0.2080152618170154	1.587321202290445	-0.5768019074783618	-0.21264218055935696	1.6131391267722188	-0.5032219231879591	-0.2422902368232851	1.9836926073999264	-0.5169682596124151	-0.2513741360888391	2.056480931891622	-0.5539802048949022	-0.2607069134308346	1.9807198702304605	-0.42262694630054176	-0.27342469539574343	1.8975906896220218	-0.38693070107380895	-0.28214971816923984	1.8253460386362985	-0.3823160269140311	-0.21604274823442432	1.9856883839392603	-0.6122990912775803	-0.21189288012735547	1.9112442163150403	-0.628730487381874	-0.21063605692642345	1.830563993846319	-0.6361380116586144
2	0.06666666666666667	-0.2507283639130668	1.830710743772779	-0.5114691478276455	-0.2624909630704713	1.8273357601444504	-0.44510808389291306	-0.2569925248505248	1.717405077238628	-0.4571959792178864	-0.23617752880919282	1.6136640673274332	-0.4413703695802904							-0.22638552464021186	1.6123964979942877	-0.4246374230687787	-0.23350420294525723	1.8311820875641165	-0.5735276231883637	-0.23819973170218736	1.7022939932679333	-0.5559750890750428	-0.2185205390324726	1.6113646605605323	-0.5016269895724365	-0.21910110380702325	1.5683460253217354	-0.5587694937546674	-0.2080152618170154	1.587321202290445	-0.5768019074783618	-0.21264218055935696	1.6131391267722188	-0.5032219231879591	-0.24221932784618372	1.9824637828903426	-0.5165096823715392	-0.24944939420370532	2.056411027370057	-0.5560864712691699	-0.26073002632962783	1.9806743846544463	-0.42263937940092594	-0.2734307461243588	1.8975164340396293	-0.3870836705239269	-0.282251565151774	1.826244076641938	-0.3824476425193346	-0.21515274410835997	1.9856794056913518	-0.6091855280655635	-0.2100701716688685	1.9070628292282013	-0.6223706151722045	-0.2142129966377283	1.828621979385108	-0.6316407311643092
3	0.1	-0.25053640137545896	1.8322954967643115	-0.5117277369404959	-0.26231599598005667	1.829064942574089	-0.445306577060153	-0.2569925248505248	1.717405077238628	-0.4571959792178864	-0.23617752880919282	1.6136640673274332	-0.4413703695802904							-0.22638552464021186	1.6123964979942877	-0.4246374230687787	-0.2332959489634578	1.8326805465377785	-0.5738377679776667	-0.23819973170218736	1.7022939932679333	-0.5559750890750428	-0.2185205390324726	1.6113646605605323	-0.5016269895724365	-0.21910110380702325	1.5683460253217354	-0.5587694937546674	-0.2080152618170154	1.587321202290445	-0.5768019074783618	-0.21264218055935696	1.6131391267722188	-0.5032219231879591	-0.2403205249340753	1.982487039701416	-0.5186971597071308	-0.2494259504524357	2.056396634835699	-0.5561184861158385	-0.26170644876716687	1.9807579599552982	-0.4257244298090495	-0.27343879334772503	1.897466237127506	-0.38706342811575206	-0.2832625924334893	1.82643908491841	-0.38565239759973824	-0.2139767695263746	1.9857722839459735	-0.6142976796486013	-0.20982274427955916	1.9058535945101172	-0.6310240527576858	-0.21444396532873805	1.8310492676077008	-0.6320384053511453
4	0.13333333333333333	-0.25056180377536835	1.8320269442662738	-0.5116736226437218	-0.2625091200914801	1.8275621583188209	-0.4451034653076618	-0.2569925248505248	1.717405077238628	-0.4571959792178864	-0.23617752880919282	1.6136640673274332	-0.4413703695802904							-0.22638552464021186	1.6123964979942877	-0.4246374230687787	-0.2334795562750076	1.831271908994075	-0.5735677202020425	-0.23819973170218736	1.7022939932679333	-0.5559750890750428	-0.2185205390324726	1.6113646605605323	-0.5016269895724365	-0.21910110380702325	1.5683460253217354	-0.5587694937546674	-0.2080152618170154	1.587321202290445	-0.5768019074783618	-0.21264218055935696	1.6131391267722188	-0.5032219231879591	-0.24221407900357403	1.9824058868437557	-0.5164944773896453	-0.24938822445012485	2.0562901401977354	-0.556196966617599	-1.8553903285037618	1.8940879157825905	1.3629852544503476	-0.27526928696470987	1.8974296770655843	-0.3850000679736243	-0.2833128879899712	1.826015150005328	-0.385645614769209	-0.21510191769455284	1.98556728099718	-0.6091394789682476	-0.21100541729248118	1.9054153379381973	-0.6256760319621005	-0.21006876096455812	1.835782712314495	-0.6371871505794267
5	0.16666666666666666	-0.252312397616578	1.8337713293823539	-0.5097458750619166	-0.26408762279623943	1.8298869559776525	-0.443311180828756	-0.2569925248505248	1.717405077238628	-0.4571959792178864	-0.23617752880919282	1.6136640673274332	-0.4413703695802904							-0.22638552464021186	1.6123964979942877	-0.4246374230687787	-0.23313193508323068	1.8342826164361343	-0.5739753265153462	-0.23819973170218736	1.7022939932679333	-0.5559750890750428	-0.2185205390324726	1.6113646605605323	-0.5016269895724365	-0.21910110380702325	1.5683460253217354	-0.5587694937546674	-0.2080152618170154	1.587321202290445	-0.5768019074783618	-0.21264218055935696	1.6131391267722188	-0.5032219231879591	-0.2422210098183877	1.9823636370515518	-0.5165210697057496	-0.24935902706528293	2.056385847961567	-0.5562492466420558	-0.2606301231979268	1.9818682048176675	-0.42262934475324765	-0.2763424652037376	1.8975232408514406	-0.38818843352943844	-0.2822717892341681	1.825797442316657	-0.3824522023937505	-0.21510820159164928	1.9855845148016447	-0.6091978475137331	-0.21099411315717753	1.9055034653499587	-0.6256380596634646	-0.2103541209857503	1.833039944713269	-0.6369000706899783
6	0.2	-0.25169137239677014	1.833671356736463	-0.5064628576157475	-0.2644355326631429	1.8299162320357654	-0.4432171317525231	-0.2569925248505248	1.717405077238628	-0.4571959792178864	-0.23617752880919282	1.6136640673274332	-0.4413703695802904							-0.22638552464021186	1.6123964979942877	-0.4246374230687787	-0.23546576915045406	1.8339781612602533	-0.5716663888971234	-0.23819973170218736	1.7022939932679333	-0.5559750890750428	-0.2185205390324726	1.6113646605605323	-0.5016269895724365	-0.21910110380702325	1.5683460253217354	-0.5587694937546674	-0.2080152618170154	1.587321202290445	-0.5768019074783618	-0.21264218055935696	1.6131391267722188	-0.5032219231879591	-0.24225547400971498	1.9825124868052904	-0.5165472492257698	-0.2502899372258488	2.056601697829068	-0.5592172812050914	-0.2617267899084057	1.9832415181757794	-0.42607698280365613	-0.27632918228270564	1.8975465042202588	-0.3881910097461654	-0.28226160104193415	1.825690604808139	-0.38241984839654014	-0.21515251891591222	1.9856268139490176	-0.6091975572314903	-0.21091159011335636	1.9073050786920793	-0.6257578010755775	-0.2098166842666525	1.8345934884977049	-0.6369635115956443
